<?xml version="1.0" encoding="UTF-8"?><svg id="_レイヤー_2" xmlns="http://www.w3.org/2000/svg" viewBox="0 0 847.44 90.5"><g id="Logo"><g><path d="M133.38,32.72h-28.68c-1.81-.04-4.63,.55-6.28,1.22l-63.61,25.93c-1.65,.67-1.95,2.24-.66,3.45l29.69,24.91c1.3,1.24,3.84,2.25,5.63,2.25l40.48,.03c1.79,.02,3.78-1.36,4.44-3.02l6.61-16.82c.66-1.66-.28-3.03-2.07-3.03h-13.77c-1.8,0-4.22,1.35-4.87,3.01l-2.7,6.85c-.64,1.67-2.65,3.02-4.43,3.02l-5.15-.02c-1.82,0-4.37-.97-5.73-2.16l-18.3-13.3c-1.34-1.21-1.09-2.73,.57-3.43l39.34-16.77c1.65-.7,4.47-1.27,6.27-1.27l19.42-.08c1.79,0,3.37-1.26,4.01-2.91l1.84-4.82c.63-1.66-.28-3.01-2.07-3.04Z"/><path d="M96.76,25.72L53.34,1.75c-1.56-.85-4.31-1.61-6.08-1.64L22.97,0c-1.79-.02-3.77,1.31-4.4,2.98L.19,52.62c-.61,1.69,.34,3.06,2.15,3.06H25.48c1.78,.03,4.63-.52,6.29-1.19L96.56,28.52c1.68-.66,1.76-1.94,.19-2.8Zm-30.47,1.72l-30.92,12.87c-1.66,.7-4.47,1.25-6.26,1.25h-2.49c-1.81,0-2.76-1.38-2.14-3.05l8.51-22.92c.64-1.69,2.6-3.08,4.4-3.08l2.42,.02c1.8,0,4.56,.69,6.15,1.5l20.46,10.67c1.6,.81,1.53,2.05-.12,2.74Z"/><path d="M228.37,28.57c-3.43-1.27-8.71-1.91-15.7-1.91h-27.51c-.1,0-.18,.07-.2,.16l-11.25,55.69c-.01,.06,0,.12,.04,.17,.04,.05,.09,.07,.15,.07h25.51c9.17,0,16.67-1.51,22.27-4.5,5.61-2.99,10.18-7.45,13.58-13.26,3.4-5.81,5.02-12.15,4.8-18.83-.15-4.63-1.28-8.44-3.37-11.32-2.09-2.88-4.89-4.98-8.33-6.26Zm-30.95,6.13h3.98c8.72,0,14.85,1,18.2,2.96,3.32,1.95,5.08,5.16,5.22,9.56,.16,4.78-.98,9.46-3.38,13.9-2.39,4.44-5.57,7.84-9.43,10.12-3.86,2.28-8.94,3.43-15.07,3.43h-7.6l8.08-39.97Z"/><path d="M310.38,27.42c-7.46-1.43-14.03-2.15-19.54-2.15-8.76,0-16.34,1.75-22.52,5.22-6.19,3.46-11.15,8.19-14.75,14.06-3.6,5.87-5.33,12.09-5.12,18.46,.21,6.4,2.72,11.58,7.48,15.4,4.74,3.81,11.4,5.74,19.79,5.74,6.97,0,15.41-1.03,25.08-3.05,.08-.02,.14-.08,.15-.16l4.73-23.4c.01-.06,0-.12-.04-.17-.04-.05-.09-.07-.15-.07h-13.39c-.1,0-.18,.07-.2,.16l-3.54,17.53c-2.62,.75-5.19,1.13-7.63,1.13-5.36,0-9.6-1.28-12.6-3.81-2.99-2.52-4.58-6.05-4.73-10.48-.15-4.71,.99-9.48,3.41-14.16,2.42-4.69,5.58-8.29,9.41-10.7,3.83-2.41,8.42-3.64,13.64-3.64,1.69,0,3.43,.1,5.17,.3,1.73,.2,3.6,.53,5.57,.97,1.96,.44,4.64,1.17,7.96,2.18,.05,.02,.11,0,.16-.02,.05-.03,.08-.08,.09-.13l1.75-8.96c.01-.05,0-.11-.03-.15s-.08-.07-.13-.08Z"/><path d="M453.2,41.04h-13.14c-.1,0-.18,.07-.2,.16l-2.76,13.66c-2.55,3.96-5.53,7.99-8.85,11.99-3.3,3.97-5.9,5.99-7.72,5.99-1,0-1.48-.59-1.53-1.86-.01-.41,.03-.88,.14-1.38l6.14-28.31c.01-.06,0-.12-.04-.17-.04-.05-.1-.07-.16-.07h-13.11c-.09,0-.18,.07-.2,.16l-6.36,29.09c-.39,1.79-.56,3.45-.51,4.94,.09,2.8,.97,4.94,2.62,6.35,1.64,1.41,3.65,2.12,5.98,2.12,3.94,0,7.84-1.67,11.58-4.96,3.48-3.06,6.72-7.15,9.64-12.16l-3.22,15.94c-.01,.06,0,.12,.04,.17,.04,.05,.09,.07,.15,.07h13.1c.1,0,.18-.07,.2-.16l8.4-41.32c.01-.06,0-.12-.04-.17-.04-.05-.09-.07-.15-.07Z"/><path d="M494.9,41.04h-9.8l1.66-8.23c.01-.06,0-.13-.05-.17-.04-.05-.11-.06-.17-.06l-13.37,1.51c-.09,0-.16,.07-.17,.16l-1.38,6.8h-7.07c-.09,0-.17,.06-.19,.16l-1.58,6.96c-.01,.06,0,.12,.04,.17,.04,.05,.1,.08,.16,.08h7.16l-4.18,20.64c-.48,2.44-.71,4.35-.66,5.69,.07,2.21,1.14,4.24,3.17,6.03,2.03,1.79,5.48,2.7,10.25,2.7,2.86,0,5.82-.37,8.8-1.1,.08-.02,.13-.08,.15-.15l1.49-7.3c.01-.07-.01-.14-.06-.19s-.13-.06-.2-.04c-1.75,.62-3.5,.93-5.2,.93-1.02,0-2.04-.27-3.04-.81-.97-.52-1.47-1.45-1.51-2.82-.03-.86,.12-2.08,.45-3.62l4.03-19.97h9.88c.1,0,.18-.07,.2-.16l1.4-6.96c.01-.06,0-.12-.04-.17-.04-.05-.09-.07-.15-.07Z"/><path d="M547.73,41.04h-13.14c-.1,0-.18,.07-.2,.16l-2.76,13.66c-2.55,3.96-5.53,7.99-8.85,11.99-3.3,3.97-5.9,5.99-7.72,5.99-1,0-1.48-.59-1.53-1.86-.01-.41,.03-.88,.14-1.38l6.14-28.31c.01-.06,0-.12-.04-.17-.04-.05-.1-.07-.16-.07h-13.11c-.09,0-.18,.07-.2,.16l-6.36,29.09c-.39,1.79-.56,3.45-.51,4.94,.09,2.8,.97,4.94,2.62,6.35,1.64,1.41,3.65,2.12,5.98,2.12,3.94,0,7.84-1.67,11.58-4.96,3.48-3.06,6.72-7.15,9.64-12.16l-3.22,15.94c-.01,.06,0,.12,.04,.17,.04,.05,.09,.07,.15,.07h13.1c.1,0,.18-.07,.2-.16l8.4-41.32c.01-.06,0-.12-.04-.17-.04-.05-.09-.07-.15-.07Z"/><path d="M596.97,40.73s-.07-.08-.12-.1c-1.29-.36-2.55-.54-3.74-.54-3.51,0-7.39,1.64-11.52,4.88-3.87,3.03-7.41,7.17-10.53,12.31l3.21-16.01c.01-.06,0-.12-.04-.17-.04-.05-.09-.07-.15-.07h-13.1c-.1,0-.18,.07-.2,.16l-8.35,41.32c-.01,.06,0,.12,.04,.17,.04,.05,.09,.07,.15,.07h13.1c.1,0,.18-.07,.2-.16l2.79-13.66c3.27-4.57,6.81-8.8,10.51-12.57,3.67-3.74,7.16-5.64,10.37-5.64,1.06,0,2.3,.27,3.67,.81,.05,.02,.11,.02,.16,0,.05-.02,.09-.07,.1-.12l3.47-10.54c.02-.05,.01-.11-.01-.16Z"/><path d="M640.31,69.81c-4.13,2.07-8.18,3.61-12.05,4.58-3.87,.97-6.97,1.46-9.22,1.46s-4.35-.54-6.21-1.61c-1.79-1.03-2.85-3.09-3.15-6.13,6.22-.31,11.72-1.41,16.34-3.26,4.68-1.87,8.22-4.22,10.52-6.98,2.31-2.77,3.44-5.72,3.34-8.77-.09-2.66-1.29-4.85-3.57-6.51-2.27-1.65-5.42-2.48-9.38-2.48-5.33,0-10.41,1.33-15.09,3.96-4.68,2.63-8.52,6.35-11.42,11.08-2.9,4.73-4.29,9.59-4.13,14.45,.08,2.41,.8,4.76,2.16,6.98,1.36,2.23,3.57,4,6.58,5.25,2.99,1.25,6.39,1.88,10.09,1.88,2.83,0,6.36-.36,10.48-1.06,4.13-.7,8.54-1.98,13.11-3.81,.06-.02,.11-.08,.12-.15l1.76-8.66c.02-.08-.01-.15-.07-.2-.06-.05-.14-.05-.21-.02Zm-24.45-18.59c2.5-2.17,4.88-3.27,7.07-3.27,1.39,0,2.46,.35,3.18,1.05,.72,.7,1.1,1.51,1.13,2.43,.07,2.15-1.3,4.25-4.06,6.27-2.74,2-7.02,3.03-12.71,3.06,1.12-4.19,2.93-7.4,5.39-9.53Z"/><path d="M706.16,34.58l1.52-7.68c.01-.06,0-.12-.04-.17-.04-.05-.09-.07-.15-.07h-61.16c-.1,0-.18,.07-.2,.16l-1.52,7.68c-.01,.06,0,.12,.04,.17,.04,.05,.09,.07,.15,.07h23.52l-9.66,47.77c-.01,.06,0,.12,.04,.17,.04,.05,.09,.07,.15,.07h13.64c.1,0,.18-.07,.2-.16l9.63-47.85h23.64c.1,0,.18-.07,.2-.16Z"/><path d="M738.89,69.81c-4.13,2.07-8.18,3.61-12.05,4.58-3.87,.97-6.97,1.46-9.22,1.46s-4.35-.54-6.21-1.61c-1.79-1.03-2.85-3.09-3.15-6.13,6.22-.31,11.72-1.41,16.34-3.26,4.68-1.87,8.22-4.22,10.52-6.98,2.31-2.77,3.44-5.72,3.34-8.77-.09-2.66-1.29-4.85-3.57-6.51-2.27-1.65-5.42-2.48-9.38-2.48-5.33,0-10.41,1.33-15.09,3.96-4.68,2.63-8.52,6.35-11.42,11.08-2.9,4.73-4.29,9.59-4.13,14.45,.08,2.41,.8,4.76,2.16,6.98,1.36,2.23,3.57,4,6.58,5.25,2.99,1.25,6.39,1.88,10.09,1.88,2.83,0,6.36-.36,10.48-1.06,4.13-.7,8.54-1.98,13.11-3.81,.06-.02,.11-.08,.12-.15l1.76-8.66c.02-.08-.01-.15-.07-.2-.06-.05-.14-.05-.21-.02Zm-24.45-18.59c2.5-2.17,4.88-3.27,7.07-3.27,1.39,0,2.46,.35,3.18,1.05,.72,.7,1.1,1.51,1.13,2.43,.07,2.15-1.3,4.25-4.06,6.27-2.74,2-7.02,3.03-12.71,3.06,1.12-4.19,2.93-7.4,5.39-9.53Z"/><path d="M791.85,41.99c-4.41-1.25-8.46-1.89-12.03-1.89-5.29,0-10.53,1.39-15.55,4.13-5.03,2.74-9.03,6.48-11.9,11.11-2.87,4.64-4.24,9.45-4.09,14.28,.14,4.38,1.91,7.87,5.26,10.35,3.33,2.47,7.55,3.73,12.53,3.73,6.08,0,12.57-1.23,19.31-3.66,.07-.02,.11-.08,.13-.15l1.75-8.8c.01-.08-.01-.15-.08-.2-.06-.05-.14-.05-.21-.02-2.08,1.04-4.11,1.86-6.04,2.43-1.94,.57-3.8,1.03-5.52,1.37-1.71,.33-3.18,.5-4.37,.5-2.37,0-4.37-.6-5.96-1.79-1.58-1.17-2.42-3.1-2.5-5.74-.11-3.29,.65-6.67,2.24-10.07,1.59-3.39,3.67-5.95,6.19-7.61,2.51-1.66,5.27-2.51,8.2-2.51,2.77,0,6.45,.93,10.96,2.77,.06,.02,.12,.02,.17,0,.05-.03,.09-.08,.1-.14l1.56-7.86c.02-.1-.04-.2-.14-.23Z"/><path d="M844.68,42.21c-1.73-1.4-3.85-2.12-6.31-2.12-4.2,0-8.36,1.66-12.38,4.94-3.76,3.07-7.26,7.19-10.42,12.28l6.89-34.14c.01-.06,0-.12-.04-.17-.04-.05-.09-.07-.15-.07h-13.1c-.1,0-.18,.07-.2,.16l-12.01,59.42c-.01,.06,0,.12,.04,.17,.04,.05,.09,.07,.15,.07h13.1c.1,0,.18-.07,.2-.16l2.79-13.66c2.78-3.95,6.09-8.02,9.84-12.1,3.73-4.05,6.64-6.11,8.65-6.11,1.14,0,1.69,.61,1.73,1.91,.02,.48-.04,1-.17,1.53l-5.73,28.33c-.01,.06,0,.12,.04,.17,.04,.05,.09,.07,.15,.07h13.1c.1,0,.18-.07,.2-.16l5.92-29.08c.36-1.79,.51-3.46,.46-4.98-.09-2.78-1.02-4.91-2.76-6.32Z"/><path d="M406.22,26.94c-.1-.12-.25-.19-.4-.19h-49.97c-.25,0-.46,.18-.51,.42l-1.04,5.39-9.98,49.37c-.03,.15,0,.31,.11,.43,.1,.12,.25,.19,.4,.19h13.39c.25,0,.46-.18,.51-.42l4.56-22.58h30.67c.25,0,.46-.18,.51-.42l1.67-8.59c.03-.15-.01-.31-.11-.43-.1-.12-.25-.19-.4-.19h-30.39l2.74-13.54h36.17c.25,0,.46-.18,.51-.42l1.67-8.59c.03-.15-.01-.31-.11-.43Z"/></g><g><path d="M133.38,32.72h-28.68c-1.81-.04-4.63,.55-6.28,1.22l-63.61,25.93c-1.65,.67-1.95,2.24-.66,3.45l29.69,24.91c1.3,1.24,3.84,2.25,5.63,2.25l40.48,.03c1.79,.02,3.78-1.36,4.44-3.02l6.61-16.82c.66-1.66-.28-3.03-2.07-3.03h-13.77c-1.8,0-4.22,1.35-4.87,3.01l-2.7,6.85c-.64,1.67-2.65,3.02-4.43,3.02l-5.15-.02c-1.82,0-4.37-.97-5.73-2.16l-18.3-13.3c-1.34-1.21-1.09-2.73,.57-3.43l39.34-16.77c1.65-.7,4.47-1.27,6.27-1.27l19.42-.08c1.79,0,3.37-1.26,4.01-2.91l1.84-4.82c.63-1.66-.28-3.01-2.07-3.04Z"/><path d="M96.76,25.72L53.34,1.75c-1.56-.85-4.31-1.61-6.08-1.64L22.97,0c-1.79-.02-3.77,1.31-4.4,2.98L.19,52.62c-.61,1.69,.34,3.06,2.15,3.06H25.48c1.78,.03,4.63-.52,6.29-1.19L96.56,28.52c1.68-.66,1.76-1.94,.19-2.8Zm-30.47,1.72l-30.92,12.87c-1.66,.7-4.47,1.25-6.26,1.25h-2.49c-1.81,0-2.76-1.38-2.14-3.05l8.51-22.92c.64-1.69,2.6-3.08,4.4-3.08l2.42,.02c1.8,0,4.56,.69,6.15,1.5l20.46,10.67c1.6,.81,1.53,2.05-.12,2.74Z"/><path d="M228.37,28.57c-3.43-1.27-8.71-1.91-15.7-1.91h-27.51c-.1,0-.18,.07-.2,.16l-11.25,55.69c-.01,.06,0,.12,.04,.17,.04,.05,.09,.07,.15,.07h25.51c9.17,0,16.67-1.51,22.27-4.5,5.61-2.99,10.18-7.45,13.58-13.26,3.4-5.81,5.02-12.15,4.8-18.83-.15-4.63-1.28-8.44-3.37-11.32-2.09-2.88-4.89-4.98-8.33-6.26Zm-30.95,6.13h3.98c8.72,0,14.85,1,18.2,2.96,3.32,1.95,5.08,5.16,5.22,9.56,.16,4.78-.98,9.46-3.38,13.9-2.39,4.44-5.57,7.84-9.43,10.12-3.86,2.28-8.94,3.43-15.07,3.43h-7.6l8.08-39.97Z"/><path d="M310.38,27.42c-7.46-1.43-14.03-2.15-19.54-2.15-8.76,0-16.34,1.75-22.52,5.22-6.19,3.46-11.15,8.19-14.75,14.06-3.6,5.87-5.33,12.09-5.12,18.46,.21,6.4,2.72,11.58,7.48,15.4,4.74,3.81,11.4,5.74,19.79,5.74,6.97,0,15.41-1.03,25.08-3.05,.08-.02,.14-.08,.15-.16l4.73-23.4c.01-.06,0-.12-.04-.17-.04-.05-.09-.07-.15-.07h-13.39c-.1,0-.18,.07-.2,.16l-3.54,17.53c-2.62,.75-5.19,1.13-7.63,1.13-5.36,0-9.6-1.28-12.6-3.81-2.99-2.52-4.58-6.05-4.73-10.48-.15-4.71,.99-9.48,3.41-14.16,2.42-4.69,5.58-8.29,9.41-10.7,3.83-2.41,8.42-3.64,13.64-3.64,1.69,0,3.43,.1,5.17,.3,1.73,.2,3.6,.53,5.57,.97,1.96,.44,4.64,1.17,7.96,2.18,.05,.02,.11,0,.16-.02,.05-.03,.08-.08,.09-.13l1.75-8.96c.01-.05,0-.11-.03-.15s-.08-.07-.13-.08Z"/><path d="M453.2,41.04h-13.14c-.1,0-.18,.07-.2,.16l-2.76,13.66c-2.55,3.96-5.53,7.99-8.85,11.99-3.3,3.97-5.9,5.99-7.72,5.99-1,0-1.48-.59-1.53-1.86-.01-.41,.03-.88,.14-1.38l6.14-28.31c.01-.06,0-.12-.04-.17-.04-.05-.1-.07-.16-.07h-13.11c-.09,0-.18,.07-.2,.16l-6.36,29.09c-.39,1.79-.56,3.45-.51,4.94,.09,2.8,.97,4.94,2.62,6.35,1.64,1.41,3.65,2.12,5.98,2.12,3.94,0,7.84-1.67,11.58-4.96,3.48-3.06,6.72-7.15,9.64-12.16l-3.22,15.94c-.01,.06,0,.12,.04,.17,.04,.05,.09,.07,.15,.07h13.1c.1,0,.18-.07,.2-.16l8.4-41.32c.01-.06,0-.12-.04-.17-.04-.05-.09-.07-.15-.07Z"/><path d="M494.9,41.04h-9.8l1.66-8.23c.01-.06,0-.13-.05-.17-.04-.05-.11-.06-.17-.06l-13.37,1.51c-.09,0-.16,.07-.17,.16l-1.38,6.8h-7.07c-.09,0-.17,.06-.19,.16l-1.58,6.96c-.01,.06,0,.12,.04,.17,.04,.05,.1,.08,.16,.08h7.16l-4.18,20.64c-.48,2.44-.71,4.35-.66,5.69,.07,2.21,1.14,4.24,3.17,6.03,2.03,1.79,5.48,2.7,10.25,2.7,2.86,0,5.82-.37,8.8-1.1,.08-.02,.13-.08,.15-.15l1.49-7.3c.01-.07-.01-.14-.06-.19s-.13-.06-.2-.04c-1.75,.62-3.5,.93-5.2,.93-1.02,0-2.04-.27-3.04-.81-.97-.52-1.47-1.45-1.51-2.82-.03-.86,.12-2.08,.45-3.62l4.03-19.97h9.88c.1,0,.18-.07,.2-.16l1.4-6.96c.01-.06,0-.12-.04-.17-.04-.05-.09-.07-.15-.07Z"/><path d="M547.73,41.04h-13.14c-.1,0-.18,.07-.2,.16l-2.76,13.66c-2.55,3.96-5.53,7.99-8.85,11.99-3.3,3.97-5.9,5.99-7.72,5.99-1,0-1.48-.59-1.53-1.86-.01-.41,.03-.88,.14-1.38l6.14-28.31c.01-.06,0-.12-.04-.17-.04-.05-.1-.07-.16-.07h-13.11c-.09,0-.18,.07-.2,.16l-6.36,29.09c-.39,1.79-.56,3.45-.51,4.94,.09,2.8,.97,4.94,2.62,6.35,1.64,1.41,3.65,2.12,5.98,2.12,3.94,0,7.84-1.67,11.58-4.96,3.48-3.06,6.72-7.15,9.64-12.16l-3.22,15.94c-.01,.06,0,.12,.04,.17,.04,.05,.09,.07,.15,.07h13.1c.1,0,.18-.07,.2-.16l8.4-41.32c.01-.06,0-.12-.04-.17-.04-.05-.09-.07-.15-.07Z"/><path d="M596.97,40.73s-.07-.08-.12-.1c-1.29-.36-2.55-.54-3.74-.54-3.51,0-7.39,1.64-11.52,4.88-3.87,3.03-7.41,7.17-10.53,12.31l3.21-16.01c.01-.06,0-.12-.04-.17-.04-.05-.09-.07-.15-.07h-13.1c-.1,0-.18,.07-.2,.16l-8.35,41.32c-.01,.06,0,.12,.04,.17,.04,.05,.09,.07,.15,.07h13.1c.1,0,.18-.07,.2-.16l2.79-13.66c3.27-4.57,6.81-8.8,10.51-12.57,3.67-3.74,7.16-5.64,10.37-5.64,1.06,0,2.3,.27,3.67,.81,.05,.02,.11,.02,.16,0,.05-.02,.09-.07,.1-.12l3.47-10.54c.02-.05,.01-.11-.01-.16Z"/><path d="M640.31,69.81c-4.13,2.07-8.18,3.61-12.05,4.58-3.87,.97-6.97,1.46-9.22,1.46s-4.35-.54-6.21-1.61c-1.79-1.03-2.85-3.09-3.15-6.13,6.22-.31,11.72-1.41,16.34-3.26,4.68-1.87,8.22-4.22,10.52-6.98,2.31-2.77,3.44-5.72,3.34-8.77-.09-2.66-1.29-4.85-3.57-6.51-2.27-1.65-5.42-2.48-9.38-2.48-5.33,0-10.41,1.33-15.09,3.96-4.68,2.63-8.52,6.35-11.42,11.08-2.9,4.73-4.29,9.59-4.13,14.45,.08,2.41,.8,4.76,2.16,6.98,1.36,2.23,3.57,4,6.58,5.25,2.99,1.25,6.39,1.88,10.09,1.88,2.83,0,6.36-.36,10.48-1.06,4.13-.7,8.54-1.98,13.11-3.81,.06-.02,.11-.08,.12-.15l1.76-8.66c.02-.08-.01-.15-.07-.2-.06-.05-.14-.05-.21-.02Zm-24.45-18.59c2.5-2.17,4.88-3.27,7.07-3.27,1.39,0,2.46,.35,3.18,1.05,.72,.7,1.1,1.51,1.13,2.43,.07,2.15-1.3,4.25-4.06,6.27-2.74,2-7.02,3.03-12.71,3.06,1.12-4.19,2.93-7.4,5.39-9.53Z"/><path d="M706.16,34.58l1.52-7.68c.01-.06,0-.12-.04-.17-.04-.05-.09-.07-.15-.07h-61.16c-.1,0-.18,.07-.2,.16l-1.52,7.68c-.01,.06,0,.12,.04,.17,.04,.05,.09,.07,.15,.07h23.52l-9.66,47.77c-.01,.06,0,.12,.04,.17,.04,.05,.09,.07,.15,.07h13.64c.1,0,.18-.07,.2-.16l9.63-47.85h23.64c.1,0,.18-.07,.2-.16Z"/><path d="M738.89,69.81c-4.13,2.07-8.18,3.61-12.05,4.58-3.87,.97-6.97,1.46-9.22,1.46s-4.35-.54-6.21-1.61c-1.79-1.03-2.85-3.09-3.15-6.13,6.22-.31,11.72-1.41,16.34-3.26,4.68-1.87,8.22-4.22,10.52-6.98,2.31-2.77,3.44-5.72,3.34-8.77-.09-2.66-1.29-4.85-3.57-6.51-2.27-1.65-5.42-2.48-9.38-2.48-5.33,0-10.41,1.33-15.09,3.96-4.68,2.63-8.52,6.35-11.42,11.08-2.9,4.73-4.29,9.59-4.13,14.45,.08,2.41,.8,4.76,2.16,6.98,1.36,2.23,3.57,4,6.58,5.25,2.99,1.25,6.39,1.88,10.09,1.88,2.83,0,6.36-.36,10.48-1.06,4.13-.7,8.54-1.98,13.11-3.81,.06-.02,.11-.08,.12-.15l1.76-8.66c.02-.08-.01-.15-.07-.2-.06-.05-.14-.05-.21-.02Zm-24.45-18.59c2.5-2.17,4.88-3.27,7.07-3.27,1.39,0,2.46,.35,3.18,1.05,.72,.7,1.1,1.51,1.13,2.43,.07,2.15-1.3,4.25-4.06,6.27-2.74,2-7.02,3.03-12.71,3.06,1.12-4.19,2.93-7.4,5.39-9.53Z"/><path d="M791.85,41.99c-4.41-1.25-8.46-1.89-12.03-1.89-5.29,0-10.53,1.39-15.55,4.13-5.03,2.74-9.03,6.48-11.9,11.11-2.87,4.64-4.24,9.45-4.09,14.28,.14,4.38,1.91,7.87,5.26,10.35,3.33,2.47,7.55,3.73,12.53,3.73,6.08,0,12.57-1.23,19.31-3.66,.07-.02,.11-.08,.13-.15l1.75-8.8c.01-.08-.01-.15-.08-.2-.06-.05-.14-.05-.21-.02-2.08,1.04-4.11,1.86-6.04,2.43-1.94,.57-3.8,1.03-5.52,1.37-1.71,.33-3.18,.5-4.37,.5-2.37,0-4.37-.6-5.96-1.79-1.58-1.17-2.42-3.1-2.5-5.74-.11-3.29,.65-6.67,2.24-10.07,1.59-3.39,3.67-5.95,6.19-7.61,2.51-1.66,5.27-2.51,8.2-2.51,2.77,0,6.45,.93,10.96,2.77,.06,.02,.12,.02,.17,0,.05-.03,.09-.08,.1-.14l1.56-7.86c.02-.1-.04-.2-.14-.23Z"/><path d="M844.68,42.21c-1.73-1.4-3.85-2.12-6.31-2.12-4.2,0-8.36,1.66-12.38,4.94-3.76,3.07-7.26,7.19-10.42,12.28l6.89-34.14c.01-.06,0-.12-.04-.17-.04-.05-.09-.07-.15-.07h-13.1c-.1,0-.18,.07-.2,.16l-12.01,59.42c-.01,.06,0,.12,.04,.17,.04,.05,.09,.07,.15,.07h13.1c.1,0,.18-.07,.2-.16l2.79-13.66c2.78-3.95,6.09-8.02,9.84-12.1,3.73-4.05,6.64-6.11,8.65-6.11,1.14,0,1.69,.61,1.73,1.91,.02,.48-.04,1-.17,1.53l-5.73,28.33c-.01,.06,0,.12,.04,.17,.04,.05,.09,.07,.15,.07h13.1c.1,0,.18-.07,.2-.16l5.92-29.08c.36-1.79,.51-3.46,.46-4.98-.09-2.78-1.02-4.91-2.76-6.32Z"/><path d="M406.22,26.94c-.1-.12-.25-.19-.4-.19h-49.97c-.25,0-.46,.18-.51,.42l-1.04,5.39-9.98,49.37c-.03,.15,0,.31,.11,.43,.1,.12,.25,.19,.4,.19h13.39c.25,0,.46-.18,.51-.42l4.56-22.58h30.67c.25,0,.46-.18,.51-.42l1.67-8.59c.03-.15-.01-.31-.11-.43-.1-.12-.25-.19-.4-.19h-30.39l2.74-13.54h36.17c.25,0,.46-.18,.51-.42l1.67-8.59c.03-.15-.01-.31-.11-.43Z"/></g></g></svg>